<?xml version="1.0" encoding="iso-8859-1"?>
<!-- Generator: Adobe Illustrator 19.1.0, SVG Export Plug-In . SVG Version: 6.00 Build 0)  -->
<svg version="1.1" id="Capa_1" xmlns="http://www.w3.org/2000/svg" xmlns:xlink="http://www.w3.org/1999/xlink" x="0px" y="0px"
	 viewBox="0 0 47 47" style="enable-background:new 0 0 47 47;" xml:space="preserve">
<g id="glasses">
	<g>
		<path d="M45.839,25.486l0.004-0.002l-0.022-0.037c-0.188-0.364-0.399-0.712-0.627-1.049L34.469,6.468l-5.563,3.226l0.992,1.749
			l3.873-2.247l6.897,11.529c-1.121-0.453-2.392-0.193-3.667-0.193c-3.497,0-6.231,1.18-8,4H18c-1.769-2.82-4.502-4-8-4
			c-1.276,0-2.586-0.26-3.707,0.194l6.897-11.53l3.873,2.247l0.992-1.749l-5.563-3.226L1.766,24.399
			c-0.228,0.335-0.438,0.683-0.626,1.046l-0.019,0.04C0.394,26.906,0,28.819,0,30.532c0,5.634,4.525,10,10,10
			c5.475,0,10-4.366,10-10c0-1.233-0.609-2.904-1-4h9c-0.391,1.096-1,2.767-1,4c0,5.634,4.525,10,10,10s10-4.366,10-10
			C47,28.819,46.567,26.906,45.839,25.486z M10,38.532c-4.376,0-8-3.478-8-8c0-1.374,0.303-2.968,0.884-4.107l0.556-0.93
			c1.44-2.092,3.892-2.964,6.56-2.964c4.376,0,8,3.478,8,8C18,35.055,14.376,38.532,10,38.532z M37,38.532c-4.376,0-8-3.478-8-8
			c0-4.522,3.624-8,8-8c2.667,0,5.081,0.871,6.52,2.963l0.556,0.93C44.657,27.565,45,29.158,45,30.532
			C45,35.055,41.376,38.532,37,38.532z"/>
	</g>
</g>
<g>
</g>
<g>
</g>
<g>
</g>
<g>
</g>
<g>
</g>
<g>
</g>
<g>
</g>
<g>
</g>
<g>
</g>
<g>
</g>
<g>
</g>
<g>
</g>
<g>
</g>
<g>
</g>
<g>
</g>
</svg>
